<svg xmlns="http://www.w3.org/2000/svg" viewBox="0 0 360.67 192.17"><defs><style>.a{fill:#0080b3;}</style></defs><title>BlueLogo</title><path class="a" d="M74,59.43V96.78H90.25V57.34c0-15.54-8.58-22-19-22-9.86,0-15,4.29-18.56,9.16-2.09-4.64-6.85-9.16-15.43-9.16-8.82,0-13.69,4.18-16.7,8.58-.12-2.32-.47-5.68-.7-7.19H4c.11,5.22.11,10.33.11,15.55V96.82H20.54V63.26c0-10.33,3.24-14.5,10-14.5,7.08,0,8.58,5.1,8.58,11.25V96.78H55.48V62.44c0-9.16,2.78-13.8,9.74-13.8S74,54,74,59.43Z" transform="translate(0 0)"/><path class="a" d="M128.53,98.52l20.14-61.83H132.13C125.05,62,121.45,75.44,120.18,81.47h-.12c-.93-5.57-6.38-24-12.53-44.78H89.67l21.92,62c-2.32,6.61-5.33,8.7-11.48,8.7-1.39,0-3.13-.12-4.29-.24v13.34a74.66,74.66,0,0,0,7.77.47C118,120.91,122.85,115.8,128.53,98.52Z" transform="translate(0 0)"/><path class="a" d="M212.05,41.56c0-15.19-11.48-24.7-28.54-24.7H150.45V96.78h17.29V67h15.43C198.94,67,212.05,59,212.05,41.56ZM167.74,53.17V30.55h13.57c7.36,0,13.36,3.13,13.36,11.36S189,53.17,181,53.17Z" transform="translate(0 0)"/><path class="a" d="M260.77,77.64V78.8c0,8.47.23,14.5,1.62,18h16.48c-1.16-3.71-1.16-9.86-1.16-15.2V77.66c0-14.38-6-18.44-10-20,5.8-2.44,11.6-8.24,11.6-18.91,0-12.41-9.4-21.92-26.8-21.92H217.39V96.75h16.93v-32h11.35C258.57,64.76,260.77,68.94,260.77,77.64ZM234.32,51V30.55h14.85c8.47,0,12.76,3.71,12.76,10.2S258.22,51,248.82,51Z" transform="translate(0 0)"/><path class="a" d="M360.67,56.53c0-24.48-14.84-40.83-38.28-40.83-24.82,0-39.32,17.86-39.32,41.06,0,23,13.11,41.18,38.28,41.18C347.3,97.94,360.67,78.8,360.67,56.53Zm-12.87,2a32.2,32.2,0,0,1-1.44,8.15A25.69,25.69,0,0,1,343,73.75a23.32,23.32,0,0,1-10.1,8.37,26,26,0,0,1-8.37,2.09,29.76,29.76,0,0,1-10-.65,21.59,21.59,0,0,1-15-11.47,30.6,30.6,0,0,1-3.39-10,34.11,34.11,0,0,1-.07-9.73,30,30,0,0,1,1.56-6.8,25.14,25.14,0,0,1,3.25-6.2,23.8,23.8,0,0,1,5.19-5.27,24.1,24.1,0,0,1,8.37-3.9,28.3,28.3,0,0,1,7.21-.93,32.27,32.27,0,0,1,4.91.28,24.47,24.47,0,0,1,5.27,1.3,24.22,24.22,0,0,1,5.84,3.25,25,25,0,0,1,5,4.83,25.33,25.33,0,0,1,3.1,5.63A26.84,26.84,0,0,1,347.28,50a35.33,35.33,0,0,1,.49,8.59Z" transform="translate(0 0)"/><path class="a" d="M30.05,152.85c-9.75-2.32-11.6-3.71-11.6-6.73,0-2.67,1.85-5.1,7.3-5.1,7.78,0,9.28,4.17,9.86,6.38H51.39c-.46-8.12-6.73-18.1-24.94-18.1S2.21,138.7,2.21,147.51c0,8.47,3.13,14.5,22.73,19.37,8.59,2.09,11.14,3.6,11.14,7.43s-2.21,5.91-8.35,5.91-10.09-2.66-11.37-7.54H0c1.4,10.68,8.82,19.49,27.15,19.49s25.86-9,25.86-19C53,164.33,50.11,157.49,30.05,152.85Z" transform="translate(0 0)"/><path class="a" d="M86.54,114.45H70v16.24H60.67v12.53H70v31.55c0,10.56,3.83,16.82,15.54,16.82,3.37,0,7.89,0,11.14-1.16V179.06c-1.16.12-2.78.12-3.71.12-5,0-6.38-1.74-6.38-6.26v-29.7H98.37V130.69H86.54Z" transform="translate(0 0)"/><path class="a" d="M161,150.06c0-14.38-8.82-20.64-24.82-20.76-18.33,0-24.94,8.58-25.76,19.26h15.78c.7-4.41,2.32-7.31,9.28-7.31,7.77,0,9.28,4.17,9.28,8.47v3.59h-8.58c-17.64,0-28.54,6.38-28.54,20.07,0,9.28,6,18.79,20.53,18.79,10.67,0,14.73-3.94,16.94-7.31a23.67,23.67,0,0,0,.81,5.92h15.89c-.35-1.39-.81-9.74-.81-15.54Zm-16.24,15c0,7.89-1.28,15.31-11.83,15.31-6,0-8.7-3.71-8.7-8,0-5.8,3.71-8.94,13.8-8.94h6.73Z" transform="translate(0 0)"/><path class="a" d="M232.58,125.82c0-4.75,1.28-7.54,5.8-7.54a22.36,22.36,0,0,1,3.83.35V105.75a24.67,24.67,0,0,0-6.73-.81c-13.92,0-19.6,8-19.6,20.42v5.33H197.43v-4.87c0-4.75,1.28-7.54,5.8-7.54a22.36,22.36,0,0,1,3.83.35V105.75a24.67,24.67,0,0,0-6.73-.81c-14,0-19.48,8-19.48,20.42v5.33H172v12.53h8.82v47.56h16.58V143.22h18.45v47.56h16.7V143.22H243V130.69H232.58Z" transform="translate(0 0)"/><path class="a" d="M279.44,129.3c-19.37,0-29,13.46-29,32.36,0,15.78,8.59,30.51,28.42,30.51,18.8,0,25.41-12.06,27.5-19.37H289.77c-1.63,3.6-3.6,6.38-10.56,6.38-8.23,0-12.06-7.31-12.06-14.85h39.67a34.77,34.77,0,0,0,.23-5.1C307.05,144.26,300,129.3,279.44,129.3ZM267.5,154.17c.69-7.42,3.94-12.87,11.83-12.87,8.12,0,10.9,5.91,11,12.87Z" transform="translate(0 0)"/><path class="a" d="M338.6,141.25c0-3.25-.23-9.17-.46-10.56H321.78c.12,5.11.12,10.33.12,16.36v43.73h16.7V164.56c0-16.47,7.19-19.72,19.26-19.37V129.3C347.67,129.42,341.27,134.4,338.6,141.25Z" transform="translate(0 0)"/><polygon class="a" points="304.28 41.22 317.52 69.1 320.97 73.39 322.46 73.39 326.19 69.1 348.58 23.78 348.58 21.73 352.21 16.41 352.21 12.96 355.94 7.93 355.94 5.41 358.83 1.86 357.16 0 347.64 11.38 322.56 57.26 316.03 45.6 310.9 39.82 309.6 42.9 304.28 38.42 304.28 41.22"/></svg>