<svg xmlns="http://www.w3.org/2000/svg" viewBox="0 0 234.43 88.17"><defs><style>.a{fill:#0092cc;}</style></defs><title>LoginBlue</title><path class="a" d="M307.36,124.5h14v53.3H353.7l-1.6,11.46H307.36Z" transform="translate(-307.36 -120.65)"/><path class="a" d="M406.62,164.82c0,14.76-8.84,25.57-24.25,25.57-15,0-23.88-10.81-23.88-25.28,0-15,9.12-25.66,24.53-25.66C397.31,139.45,406.62,149.6,406.62,164.82Zm-34.5.1c0,9.4,4,14.94,10.53,14.94,6.67,0,10.34-5.54,10.34-14.85,0-10.15-3.76-14.94-10.53-14.94C376.26,150.07,372.12,154.67,372.12,164.92Z" transform="translate(-307.36 -120.65)"/><path class="a" d="M460.48,183.34c0,15.6-5.74,25.47-24.16,25.47-17.76,0-21.24-9.87-21.71-15.41h13.72c.94,3.38,3.39,5.64,8.55,5.64,8.75,0,10.44-5.36,10.44-14.85v-2.35c-2.54,4.23-6.58,6.86-13.72,6.86-12.79,0-20.12-10.53-20.12-23.59,0-15.23,9.12-25.66,21.24-25.66,8.37,0,11.85,3.94,12.6,6.2.09-1.32.47-4.23.56-5.08h12.69c0,4.42-.09,9.31-.09,14Zm-23-5.54c8.08,0,10.24-5.55,10.24-13.73s-1.4-13.81-10-13.81c-5.83,0-10.43,4.51-10.43,14.28C427.3,172.91,431.53,177.8,437.45,177.8Z" transform="translate(-307.36 -120.65)"/><path class="a" d="M472.42,132.68v-12H486v12Zm0,7.89H486v48.69H472.42Z" transform="translate(-307.36 -120.65)"/><path class="a" d="M498.08,152.89c0-4.14,0-8.65-.1-12.32h13.07c.28,1.32.47,4.7.56,6.21,1.6-3,5.55-7.33,14.1-7.33,9.78,0,16.08,6.67,16.08,18.89v30.92H528.34V159.84c0-5.54-1.78-9.49-7.8-9.49-5.73,0-8.93,3.2-8.93,11.84v27.07H498.08Z" transform="translate(-307.36 -120.65)"/></svg>