<svg xmlns="http://www.w3.org/2000/svg" viewBox="0 0 274.47 70.68"><defs><style>.a{fill:#0092cc;}</style></defs><title>ProfileBlue</title><path class="a" d="M218.76,135h26.79c13.82,0,23.12,7.71,23.12,20,0,14.1-10.62,20.58-23.4,20.58h-12.5v24.16h-14Zm14,29.42h10.71c6.49,0,11.09-2.54,11.09-9.12s-4.89-9.21-10.81-9.21h-11Z" transform="translate(-218.76 -130.23)"/><path class="a" d="M277.14,164.35c0-4.88,0-9.11-.1-13.25h13.25c.19,1.13.38,5.92.38,8.55,2.16-5.54,7.33-9.58,15.6-9.68v12.88c-9.77-.28-15.6,2.35-15.6,15.7v21.24H277.14Z" transform="translate(-218.76 -130.23)"/><path class="a" d="M358.63,175.35c0,14.76-8.83,25.57-24.25,25.57-15,0-23.87-10.81-23.87-25.29,0-15,9.11-25.66,24.53-25.66C349.33,150,358.63,160.12,358.63,175.35Zm-34.49.1c0,9.39,4,14.94,10.52,14.94,6.68,0,10.34-5.55,10.34-14.85,0-10.15-3.76-14.95-10.53-14.95C328.27,160.59,324.14,165.2,324.14,175.45Z" transform="translate(-218.76 -130.23)"/><path class="a" d="M370,199.79V161.25h-7.15V151.1H370v-4.23c0-10.06,5-16.64,15.5-16.64a27.62,27.62,0,0,1,6.21.57v10.62a24.41,24.41,0,0,0-2.82-.19c-3.95,0-5.45,1.41-5.45,6.67v3.2h8.46v10.15h-8.46v38.54Z" transform="translate(-218.76 -130.23)"/><path class="a" d="M399.05,143.21v-12h13.54v12Zm0,7.89h13.54v48.69H399.05Z" transform="translate(-218.76 -130.23)"/><path class="a" d="M424.62,199.79V131.17h13.53v68.62Z" transform="translate(-218.76 -130.23)"/><path class="a" d="M460.9,178.36c0,6.11,3.1,12,9.78,12,5.64,0,7.23-2.26,8.55-5.17h13.44c-1.69,5.92-7.05,15.7-22.28,15.7-16.07,0-23-11.94-23-24.72,0-15.32,7.8-26.23,23.49-26.23,16.64,0,22.37,12.13,22.37,24.25a29.71,29.71,0,0,1-.18,4.14Zm18.8-8.27c-.09-5.64-2.35-10.44-8.93-10.44-6.39,0-9,4.42-9.59,10.44Z" transform="translate(-218.76 -130.23)"/></svg>