<svg xmlns="http://www.w3.org/2000/svg" viewBox="0 0 360.64 192.18"><defs><style>.a{fill:#fff;}</style></defs><title>WhiteLogo</title><path class="a" d="M282.34,108.26v37.35h16.24V106.17c0-15.54-8.58-22-19-22-9.86,0-15,4.29-18.56,9.16-2.09-4.64-6.85-9.16-15.43-9.16-8.82,0-13.69,4.18-16.7,8.58-.12-2.32-.47-5.68-.7-7.19H212.28c.11,5.22.11,10.33.11,15.55v44.54h16.48V112.09c0-10.33,3.24-14.5,10-14.5,7.08,0,8.58,5.1,8.58,11.25v36.77h16.36V111.27c0-9.16,2.78-13.8,9.74-13.8S282.34,102.81,282.34,108.26Z" transform="translate(-208.33 -48.83)"/><path class="a" d="M336.86,147.35,357,85.52H340.46c-7.08,25.29-10.68,38.75-11.95,44.78h-.12c-.93-5.57-6.38-24-12.53-44.78H298l21.92,62c-2.32,6.61-5.33,8.7-11.48,8.7-1.39,0-3.13-.12-4.29-.24v13.34a74.74,74.74,0,0,0,7.77.47C326.3,169.74,331.18,164.63,336.86,147.35Z" transform="translate(-208.33 -48.83)"/><path class="a" d="M420.38,90.39c0-15.19-11.48-24.7-28.54-24.7H358.78v79.92h17.29V115.8H391.5C407.27,115.8,420.38,107.79,420.38,90.39ZM376.07,102V79.38h13.57C397,79.38,403,82.51,403,90.74S397.3,102,389.29,102Z" transform="translate(-208.33 -48.83)"/><path class="a" d="M469.1,126.47v1.16c0,8.47.23,14.5,1.62,18H487.2c-1.16-3.71-1.16-9.86-1.16-15.2v-3.94c0-14.38-6-18.44-10-20,5.8-2.44,11.6-8.24,11.6-18.91,0-12.41-9.4-21.92-26.8-21.92H425.72v79.92h16.93v-32H454C466.9,113.59,469.1,117.77,469.1,126.47ZM442.65,99.79V79.38H457.5c8.47,0,12.76,3.71,12.76,10.2s-3.71,10.21-13.11,10.21Z" transform="translate(-208.33 -48.83)"/><path class="a" d="M569,105.36c0-24.48-14.84-40.83-38.28-40.83-24.82,0-39.32,17.86-39.32,41.06,0,23,13.11,41.18,38.28,41.18C555.63,146.77,569,127.63,569,105.36Zm-12.87,2a32.27,32.27,0,0,1-1.44,8.15,25.69,25.69,0,0,1-3.32,7.07,24.24,24.24,0,0,1-4.62,5.05,24.56,24.56,0,0,1-5.48,3.32,26.13,26.13,0,0,1-8.37,2.09,29.94,29.94,0,0,1-10-.65,21.59,21.59,0,0,1-15-11.47,30.57,30.57,0,0,1-3.39-10,34.27,34.27,0,0,1-.07-9.73A29.91,29.91,0,0,1,506,94.39a25.2,25.2,0,0,1,3.25-6.2,23.81,23.81,0,0,1,5.19-5.27,24.18,24.18,0,0,1,8.37-3.9,28.58,28.58,0,0,1,7.21-.93,31.7,31.7,0,0,1,4.91.28,24.72,24.72,0,0,1,5.27,1.3,24.42,24.42,0,0,1,5.84,3.25A25.06,25.06,0,0,1,551,87.75a25.59,25.59,0,0,1,3.1,5.63,26.7,26.7,0,0,1,1.51,5.41A35.1,35.1,0,0,1,556.1,107.38Z" transform="translate(-208.33 -48.83)"/><path class="a" d="M238.38,201.68c-9.75-2.32-11.6-3.71-11.6-6.73,0-2.67,1.85-5.1,7.3-5.1,7.78,0,9.28,4.17,9.86,6.38h15.78c-.46-8.12-6.73-18.1-24.94-18.1s-24.24,9.4-24.24,18.21c0,8.47,3.13,14.5,22.73,19.37,8.59,2.09,11.14,3.6,11.14,7.43s-2.21,5.91-8.35,5.91-10.09-2.66-11.37-7.54H208.33c1.4,10.68,8.82,19.49,27.15,19.49s25.86-9.05,25.86-19C261.34,213.16,258.44,206.32,238.38,201.68Z" transform="translate(-208.33 -48.83)"/><path class="a" d="M294.87,163.28H278.28v16.24H269v12.53h9.28V223.6c0,10.56,3.83,16.82,15.54,16.82,3.37,0,7.89,0,11.14-1.16V227.89c-1.16.12-2.78.12-3.71.12-5,0-6.38-1.74-6.38-6.26v-29.7H306.7V179.52H294.87Z" transform="translate(-208.33 -48.83)"/><path class="a" d="M369.34,198.89c0-14.38-8.82-20.64-24.82-20.76-18.33,0-24.94,8.58-25.76,19.26h15.78c.7-4.41,2.32-7.31,9.28-7.31,7.77,0,9.28,4.17,9.28,8.47v3.59h-8.58c-17.64,0-28.54,6.38-28.54,20.07,0,9.28,6,18.79,20.53,18.79,10.67,0,14.73-3.94,16.94-7.31a23.71,23.71,0,0,0,.81,5.92h15.89c-.35-1.39-.81-9.74-.81-15.54Zm-16.24,15c0,7.89-1.28,15.31-11.83,15.31-6,0-8.7-3.71-8.7-8,0-5.8,3.71-8.94,13.8-8.94h6.73Z" transform="translate(-208.33 -48.83)"/><path class="a" d="M440.91,174.65c0-4.75,1.28-7.54,5.8-7.54a22.54,22.54,0,0,1,3.83.35V154.58a24.84,24.84,0,0,0-6.73-.81c-13.92,0-19.6,8-19.6,20.42v5.33H405.76v-4.87c0-4.75,1.28-7.54,5.8-7.54a22.54,22.54,0,0,1,3.83.35V154.58a24.79,24.79,0,0,0-6.73-.81c-14,0-19.48,8-19.48,20.42v5.33h-8.82v12.53h8.82v47.56h16.58V192.05h18.45v47.56h16.7V192.05h10.44V179.52H440.91Z" transform="translate(-208.33 -48.83)"/><path class="a" d="M487.77,178.13c-19.37,0-29,13.46-29,32.36,0,15.78,8.59,30.51,28.42,30.51,18.8,0,25.41-12.06,27.5-19.37H498.1c-1.63,3.6-3.6,6.38-10.56,6.38-8.23,0-12.06-7.31-12.06-14.85h39.67a35.34,35.34,0,0,0,.23-5.1C515.38,193.09,508.31,178.13,487.77,178.13ZM475.83,203c.69-7.42,3.94-12.87,11.83-12.87,8.12,0,10.9,5.91,11,12.87Z" transform="translate(-208.33 -48.83)"/><path class="a" d="M546.93,190.08c0-3.25-.23-9.17-.46-10.56H530.11c.12,5.11.12,10.33.12,16.36v43.73h16.7V213.39c0-16.47,7.19-19.72,19.26-19.37V178.13C556,178.25,549.6,183.23,546.93,190.08Z" transform="translate(-208.33 -48.83)"/><polygon class="a" points="304.28 41.22 317.52 69.1 320.97 73.39 322.46 73.39 326.19 69.1 348.58 23.78 348.58 21.73 352.21 16.41 352.21 12.96 355.94 7.93 355.94 5.41 358.83 1.86 357.16 0 347.64 11.38 322.56 57.26 316.03 45.6 310.9 39.82 309.6 42.9 304.28 38.42 304.28 41.22"/></svg>